<svg xmlns="http://www.w3.org/2000/svg" preserveAspectRatio="xMinYMin meet" viewBox="0 0 545.99998 690.00002" stroke="#fff"><g stroke="rgb(126,126,126)" id="field_path"><path d="M540.52 685.604v-680h-525v680h525v-680z" fill="none" stroke-width="2"/><path d="M538.476 254.104c-49.405 0-89.456 40.966-89.456 91.5s40.05 91.5 89.456 91.5c.512 0 1.022-.011 1.532-.02v-182.96c-.51-.01-1.02-.02-1.532-.02z" fill="none" stroke-width="1.978"/><path d="M538.52 345.604c0 2.666 4 2.666 4 0 0-2.667-4-2.667-4 0" fill="none"/><path d="M125.711 350.398c0 6.14 9.207 6.14 9.207 0s-9.207-6.14-9.207 0" fill="none" stroke-width="7.739"/><path d="M15.52 381.204h-10v-72.2h10zm0 55h55v-182.2h-55z" fill="none" stroke-width="2"/><path d="M15.52 546.204h165v-402.2h-165z" fill="none" stroke-width="2"/><path d="M180.52 418.724c48.667-36.604 48.667-109.646 0-146.25z" fill="none" stroke-width="2"/></g></svg>