<svg xmlns="http://www.w3.org/2000/svg" preserveAspectRatio="xMinYMin meet" viewBox="0 0 1049.3333 888"><path id="slide1_path" d="M705.333 866.89c-1.566-.759-3.622-2.828-4.57-4.6-1.201-2.243-3.303-3.472-6.938-4.053-4.222-.675-6.245-2.13-10.625-7.644-18.213-22.927-14.714-37.613 10.314-43.296 8.709-1.977 28.676-4.157 38.205-4.17 6.04-.01 9.751-1.073 18.667-5.35 6.12-2.935 16.817-7.367 23.77-9.849l12.642-4.512-12.55-8.116c-16.075-10.395-47.06-26.17-66.864-34.04-8.504-3.38-16.158-6.145-17.009-6.145-1.101 0-1.31 2.59-.725 9 .488 5.355.15 12.24-.835 17-1.777 8.585-1.825 10.284-.532 18.966.75 5.043.416 6.055-3.196 9.667-2.54 2.539-5.431 4.052-7.804 4.083-2.692.034-5.96 2.113-11.436 7.275-4.216 3.975-7.666 8.125-7.666 9.222 0 4.452-3.387 8.898-8.76 11.499-5.447 2.637-5.895 2.658-10.795.51-3.65-1.601-8.198-2.161-15.909-1.96-5.938.157-13.195-.362-16.128-1.152-7.503-2.02-15.86-8.475-19.039-14.705-3.51-6.88-3.565-18.709-.125-26.287 2.507-5.521 13.239-17.572 17.831-20.023 2.22-1.184 1.879-2.369-4.333-15.072-3.708-7.582-6.742-14.654-6.742-15.714 0-1.243-.781-1.628-2.199-1.084-15.167 5.82-76.148 7.659-97.801 2.948-31.69-6.893-52.243-19.894-65.016-41.125-25.5-42.388-9.288-96.945 40.779-137.222 5.63-4.529 10.13-8.556 10-8.948-.13-.393-5.71-2.85-12.399-5.463l-12.162-4.748-18.291 18c-11.124 10.947-21.067 19.492-25.373 21.807-6.326 3.401-8.126 3.754-16.873 3.313l-9.791-.495.754 8.995c.918 10.948-1.697 18.896-8.817 26.793-6.33 7.021-13.538 10.188-23.272 10.224-5.643.022-8.836.772-11.57 2.718-15.66 11.15-32.837 10.63-48.101-1.46l-5.193-4.112-7.004 2.34c-8.776 2.934-21.264 2.878-28.693-.128-7.92-3.205-15.514-12.323-19.237-23.098-2.758-7.98-3.075-11.32-3.075-32.403v-23.505l5.182-7.522c13.072-18.978 43.486-44.413 59.216-49.522 9.609-3.12 22.685-2.155 31.491 2.326l6.556 3.336 11.888-3.025c6.538-1.664 12.146-3.282 12.46-3.597.315-.315-3.784-3.462-9.11-6.993-15.002-9.947-30.35-21.942-30.348-23.719.003-4.648 13.822-29.641 23.566-42.621 3.171-4.225 5.766-7.975 5.766-8.334 0-.944-31.93-.493-36.667.518-5.15 1.1-15.891 15.139-23.542 30.77l-5.518 11.274 5.863 5.056c6.68 5.76 6.08 6.666-1.157 1.748-2.684-1.824-5.293-2.874-5.797-2.333-1.23 1.319-8.706 25.026-9.885 31.346-1.22 6.54-7.077 11.435-22.63 18.912-14.552 6.996-21.412 8.724-34.633 8.724-17.61 0-39.578-9.863-45.653-20.498-3.294-5.766-.528-38.167 4.936-57.818 3.1-11.149 3.139-11.456 1.319-10.331-2.284 1.411-19.699-1.879-26.252-4.959-3.389-1.593-9.27-6.004-13.068-9.802-6.488-6.488-7.099-6.798-10.11-5.13-5.452 3.022-15.4 2.296-22.655-1.653l-6.476-3.525-6.335 5.192c-3.485 2.855-12.052 10.563-19.038 17.128-6.986 6.565-14.751 13.765-17.256 16l-4.554 4.063 3.15-4.667c7.529-11.153 12.841-17.47 25.232-30l13.185-13.333-4.23-8.972c-2.326-4.935-4.882-8.985-5.68-9-2.33-.045-35.558 22.267-56.4 37.872-20.251 15.163-21.745 14.217-3.994-2.528 11.74-11.074 31.823-26.01 47.85-35.585l11.92-7.12.06-12.667c.108-22.276 5.745-40.273 19.457-62.113 6.608-10.525 7.369-12.569 9.17-24.619 4.598-30.75 15.192-60.467 31.289-87.766 2.254-3.824 4.1-7.149 4.1-7.389 0-.24-2.894-.82-6.43-1.289-8.834-1.172-17.696-7.175-24.762-16.774-8.112-11.02-10.722-19.28-10.77-34.086-.033-10.28.452-13.002 3.33-18.666C110.5 86.027 123.28 81.8 138.847 85.85c2.934.764 16.465 6.796 30.069 13.406l24.735 12.019 14.598-4.03c18.551-5.122 43.287-9.986 64.598-12.703 21.03-2.681 70.185-5.086 80.424-3.934 7.664.862 7.821.81 13.128-4.31 2.954-2.85 13.263-16.252 22.91-29.78 9.646-13.529 21.543-28.612 26.436-33.519 15.79-15.83 31.014-20.503 47.093-14.456 10.486 3.945 21.896 15.08 25.18 24.572 7.355 21.272 2.071 48.422-13.833 71.07-7.209 10.264-14.235 16.803-25.67 23.891-4.218 2.613-7.668 5.123-7.668 5.576 0 .454 4.95 3.767 11 7.363 6.05 3.596 18.738 11.577 28.195 17.736l17.195 11.196-.92 17.43c-1.573 29.806-4.573 51.237-11.033 78.824-1.857 7.93-3.12 14.675-2.808 14.988.313.312 7.551-1.777 16.085-4.644 55.96-18.8 124.574-28.266 175.902-24.267l18.283 1.424 9.05 7.383c10.15 8.28 35.03 21.156 52.578 27.212 9.358 3.23 40.626 11.459 54.088 14.235 3.896.804 12.443 15.257 19.2 32.473 10.509 26.768 18.888 71.748 18.228 97.843l-.376 14.869-8.41 4.886c-4.625 2.688-8.715 5.193-9.09 5.567-.373.374.861 3.72 2.744 7.435 8.108 16 1.505 30.505-16.233 35.661-13.977 4.064-25.956.777-38.823-10.65-4.2-3.73-8.391-6.154-11.7-6.765-6.843-1.264-19.996-7.645-25.916-12.573-2.618-2.18-6.669-7.543-9-11.918-3.031-5.686-5.223-8.203-7.681-8.82-6.137-1.54-13.964-7.74-17.598-13.943-5.008-8.545-5.075-22.105-.153-30.911 2.292-4.1 3.07-6.922 2.39-8.66-1.548-3.954-1.374-15.088.285-18.187 1.443-2.697 1.28-2.745-6.403-1.876-4.337.49-16.554 3-27.149 5.577-14.912 3.627-23.284 4.87-37.065 5.502l-17.802.817-2.533 5.91c-1.393 3.25-2.083 6.69-1.532 7.643.552.954 12.87 14.616 27.373 30.361 31.806 34.527 39.414 43.919 46.177 56.997 6.355 12.292 8.953 19.875 10.827 31.603 1.634 10.232 2.86 11.956 13.776 19.39 18.577 12.65 35.588 17.625 56.85 16.627 40.707-1.91 66.818-26.067 111.986-103.608 22.195-38.1 30.943-48.403 48.013-56.537 8.197-3.905 9.5-4.124 24-4.022 12.957.091 17.09.681 26.667 3.805 26.972 8.799 45.914 22.148 53.611 37.783 3.922 7.967 4.389 10.123 4.389 20.276 0 9.768-.528 12.437-3.766 19.03-2.92 5.949-5.163 8.49-10 11.333-5.821 3.423-7.205 3.658-20.9 3.559-8.067-.059-18.567-.675-23.334-1.37-17.458-2.542-28.41 1.473-43.747 16.042-11.586 11.006-17.175 18.567-33.586 45.434-15.292 25.036-22.245 34.757-33.059 46.22-26.425 28.011-57.118 39.796-93.286 35.816-16.578-1.824-34.658-6.605-50.288-13.296-6.619-2.834-12.264-4.93-12.545-4.657-.803.778 5.767 13.541 13.025 25.307l6.615 10.723 10.146 1.704c26.629 4.475 48.315 16.17 69.9 37.697 35.572 35.476 54.825 85.924 54.825 143.658 0 8.036-.364 15.56-.81 16.72-.465 1.212-2.36 2.108-4.46 2.108-2.007 0-4.705 1.166-5.995 2.591-1.29 1.426-4.02 2.96-6.068 3.41-4.671 1.025-12.622-2.18-14.607-5.888-1.345-2.513-2.663-2.775-13.774-2.738-12.235.04-24.05 1.23-40.222 4.045-7.56 1.317-8.598 1.873-9.386 5.03-1.264 5.066-4.38 8.04-9.412 8.984-5.474 1.027-8.847-.026-14.018-4.377-3.786-3.185-4.712-3.366-13.223-2.574-7.793.724-9.747 1.444-13.153 4.85-3.106 3.107-5.14 3.98-9.103 3.91-2.806-.05-6.384-.71-7.95-1.469zm38.848-17.106c4.4-.638 15.2-2.486 24-4.106 13.012-2.395 23.096-3.099 54-3.77 32.656-.707 36.687-1.008 28.666-2.141-16.525-2.334-66.662-1.356-93.333 1.821-24.458 2.914-51.953 3.597-64 1.592-3.667-.61-6.935-.857-7.263-.547-.327.31.94 2.099 2.817 3.976 2.987 2.987 4.976 3.534 15.93 4.383 13.46 1.043 26.414.644 39.183-1.208zm46.485-40.92c5.233-1.88 18.215-7.867 28.848-13.305 11.074-5.663 23.119-10.785 28.194-11.99l8.861-2.102-2.402-8.176c-4.573-15.564-16.494-43.509-18.56-43.509-.438 0-2.275 3.113-4.081 6.918-4.238 8.926-15.378 20.92-23.573 25.38-5.724 3.117-15.034 6.09-26.148 8.352-3.618.737-3.472.943 6 8.488 5.34 4.253 10.61 8.83 11.71 10.17 1.93 2.352 1.844 2.357-2.449.138-4.401-2.276-4.581-2.248-17.333 2.67-16.186 6.243-32.219 13.48-32.219 14.543 0 .967 8.38 4.642 14 6.138 6.178 1.644 18.66.054 29.152-3.715zm-122.492-23.425c15.508-20.445 16.247-43.513 2.568-80.082-7.165-19.154-7.53-26.216-2.362-45.635 4.04-15.182 4.786-30.304 1.92-38.94-1.033-3.117-2.263-5.667-2.733-5.667-2.866 0-3.623 3.786-3.028 15.149.589 11.261.213 13.869-4.349 30.151-5.99 21.382-5.83 24.992 1.913 43.184 7.208 16.936 9.426 25.707 10.328 40.85 1.139 19.11-3.689 35.023-15.196 50.094l-4.922 6.446 5.02-3.937c2.76-2.165 7.639-7.39 10.84-11.613zm88.34-39.601c4.583-2.169 8.333-4.351 8.333-4.85 0-.5-2.45-3.567-5.447-6.817-7.664-8.315-13.6-21.524-13.6-30.264 0-13.837 6.864-26.349 17.92-32.663l6.722-3.84-7.797-2.93c-4.289-1.61-11.822-3.701-16.74-4.645l-8.943-1.715 2.773 5.5 2.773 5.501-3.633-3.333c-8.959-8.22-38.028-51.91-38.028-57.156 0-.757-3.826-4.106-8.502-7.443-8.098-5.78-11.49-7.273-11.503-5.068-.003.55-2.394 4.15-5.314 8.001l-5.307 7 2.62 4.31c1.441 2.37 3.326 7.461 4.188 11.315 1.053 4.702 2.576 7.668 4.631 9.014 1.749 1.146 3.428 3.955 3.915 6.547 1.118 5.964-3.311 16.225-7.91 18.32-3.878 1.768-4.431 2.91-5.552 11.477l-.831 6.35 7.53.216c18.644.536 43.11 21.06 55.374 46.45 2.833 5.867 5.57 13.067 6.08 16 1.737 9.97 3.854 10.586 16.248 4.723zm-52.272-18.39c-1.477-6.05-7.35-18.109-10.472-21.5-3.216-3.495-10.08-6.833-14.049-6.833-2.388 0-2.3.678 1.438 11 5.47 15.109 4.846 14.301 13.725 17.734 10.235 3.957 10.42 3.949 9.358-.4zm-66.434-4.074c1.988-1.263-.537-10.931-2.85-10.916-3.397.023-25.267 9.169-23.444 9.804 6.18 2.154 23.5 2.887 26.294 1.112zm153.82-12.925c2.05-4.4 4.478-11.726 5.396-16.28 1.862-9.243 1.2-10.778-6.641-15.396-3.913-2.304-4.044-2.286-8.116 1.14-5.143 4.328-10.275 13.005-11.429 19.323-1.281 7.016 1.33 14.772 6.912 20.518l4.912 5.058 2.62-3.182c1.44-1.75 4.297-6.781 6.347-11.181zm-209.434 10.606c16.295-2.273 32.943-6.704 44.671-11.891 7.49-3.312 7.63-3.473 6.729-7.716-.506-2.383-1.444-11.88-2.084-21.105-.64-9.225-1.587-18.525-2.103-20.667-1.32-5.482-5.7-13.894-7.233-13.894-.708 0-6.307 1.455-12.443 3.233-6.137 1.778-17.174 3.963-24.528 4.854l-13.37 1.62 3.444 7.48c2.668 5.796 3.564 10.181 3.978 19.48.632 14.224-2.026 23.49-9.765 34.033-2.678 3.648-4.24 6.633-3.469 6.633.77 0 8.048-.927 16.173-2.06zm-63.267-6.273c9.398-10.397 14.07-21.319 14.915-34.872.408-6.552.038-13.823-.904-17.75l-1.596-6.653-13.58-.827c-21.21-1.291-24.86-3.31-6.248-3.455 25.94-.201 64.852-4.708 64.507-7.471-.262-2.098-17.732-11.004-28.988-14.776l-10.48-3.513-11.859 6.252c-9.75 5.141-11.792 5.82-11.486 3.813.512-3.354 3.827-7.745 6.64-8.794 3.83-1.429 2.66-3.43-2.667-4.56-11.268-2.39-83.36-.75-85.772 1.95-.485.544-1.238 3.762-1.673 7.15l-.79 6.162 9.857.632c18.66 1.198 32.313 11.67 42.21 32.379 6.288 13.154 9.03 23.39 10.082 37.626l.81 10.96 5.471 1.231c12.239 2.752 14.665 2.135 21.551-5.484zm-17.08-21.107c-3.768-2.195-6.609-8.935-5.635-13.369 1.876-8.54 11.023-9.743 17.306-2.276 3.843 4.566 4.145 7.64 1.295 13.152-1.624 3.14-2.9 3.925-6.333 3.893-2.365-.023-5.35-.652-6.633-1.4zm-37.833 7.94c5.054-25.269-7.722-46.577-31.5-52.536-4.336-1.087-4.372-.842-1.711 11.713 2.824 13.326 10.003 25.892 20.683 36.203 5.006 4.833 9.685 8.787 10.398 8.787.713 0 1.672-1.875 2.13-4.167zm338.616-77.934c1.51-.58.667-1.97-3.432-5.667-5.938-5.353-10.275-13.458-10.321-19.285-.1-12.569 15.128-25.306 35.414-29.622 10.163-2.163 36.801-2.643 48.916-.882l7.693 1.118 8.854-14.114c31.473-50.174 42.093-63.007 58.505-70.7 5.09-2.386 10.15-4.792 11.242-5.347 3.302-1.675 6.798-15.896 7.554-30.733.822-16.142-1.473-25.8-8.873-37.331-3.853-6.006-4.763-6.669-9.14-6.662-5.2.008-12.978 1.889-16.108 3.896-1.553.994-.994 2.245 2.953 6.614 7.573 8.382 11.924 18.129 12.662 28.364.901 12.511-.42 17.763-6.03 23.974-6.31 6.984-15.636 11.566-37.542 18.443-20.767 6.52-25.642 9.302-29.732 16.967-2.802 5.252-2.872 5.994-1.128 12 1.022 3.52 2.105 9.145 2.407 12.498.462 5.13-.02 6.774-3.038 10.36-7.996 9.503-26.84 16.124-55.305 19.433-10.375 1.206-20.442 3.287-26.667 5.514-6.431 2.3-13.967 3.828-21.117 4.282-8.63.547-11.261 1.183-11.764 2.843-4.114 13.592-16.765 25.777-35.089 33.8l-6.03 2.639 6 2.635c10.015 4.398 28.979 10.284 41.836 12.985 11.66 2.45 33.087 3.587 37.28 1.978zm81.49-111.838c-3.96-3.96-4.125-6.542-.64-10.027 3.416-3.416 8.848-4.73 13.221-3.199 6.662 2.333 4.714 12.444-2.91 15.101-5.517 1.923-5.958 1.838-9.67-1.875zM335.275 618.765c7.716-5.106 11.385-12.723 11.392-23.65.007-12.11-2.2-17.562-9.917-24.5l-6.586-5.922-7.375 3.545c-6.59 3.167-7.295 3.899-6.617 6.877 2.007 8.815 2.214 15.173.672 20.68-1.795 6.411-10.368 17.29-14.71 18.669-4.082 1.295-3.121 3.215 3.047 6.09 8.51 3.969 22.665 3.127 30.094-1.789zm499.07-5.807c8.007-4.135 15.08-9.15 21.545-15.277l9.624-9.12-16-.043c-14.17-.038-16.79.325-22.913 3.176-6.897 3.21-11.122 8.44-11.058 13.689.035 2.86 4.807 13.732 6.027 13.732.47 0 6.218-2.77 12.775-6.157zm-555.775-.52c14.406-5.39 23.307-16.516 24.597-30.748l.691-7.619-7.288-2.118c-4.553-1.324-9.573-4.13-13.377-7.478-3.438-3.027-7.45-5.354-9.217-5.347-4.08.016-15.404 6.603-20.378 11.853-4.913 5.186-6.333 5.248-4.574.2 2.016-5.783 10.781-15.142 17.537-18.726l5.9-3.13-1.204-5.36c-1.324-5.89-.387-17.571 1.993-24.85 1.49-4.557 1.546-4.43 2.377 5.359 1.37 16.116 7.696 25.233 20.32 29.28 13.722 4.398 33.122-5.324 39.102-19.596 2.206-5.263 2.342-18.385.254-24.51-2.5-7.331-8.658-15.342-13.597-17.686-6.528-3.097-19.991-2.817-27.462.572-8.105 3.676-27.415 19.642-42.895 35.465l-12.832 13.116-.964 15.635c-2.85 46.21 12.099 66.508 41.017 55.688zm21.464-104.681c-4.235-4.236-4.017-10.429.39-11.056 4.075-.58 10.925 3.259 12.677 7.106 3.264 7.162-6.81 10.207-13.067 3.95zm65.841 103.356c2.398-1.462 6.148-5.477 8.333-8.923 7.286-11.488 4.558-29.091-5.723-36.933-5.268-4.018-17.279-7.023-22.667-5.67l-3.597.902 5.121 5.121c2.817 2.817 6.714 8.376 8.66 12.354 5.04 10.302 5.452 19.645 1.447 32.818-1.187 3.904 2.339 4.043 8.426.331zm202.769-15.415c-15.895-22.133-63.458-36.635-96.236-29.343-9.645 2.146-10.483 2.634-16.386 9.543-3.421 4.005-5.877 7.626-5.456 8.047.42.42 3.835.105 7.588-.7 11.233-2.409 43.091-1.806 60.335 1.142 17.042 2.914 37.713 9.787 47.33 15.738 3.5 2.165 6.558 3.435 6.797 2.823.24-.612-1.548-3.874-3.972-7.25zm-154.407-34.544c4.798-3.27 10.052-7.358 11.675-9.086l2.952-3.142-11.05.58c-19.073 1-34.647-4.805-41.947-15.637-4.785-7.1-4.04-12.476 2.647-19.123 3.117-3.098 8.227-6.778 11.357-8.178l5.69-2.546-5.598-3.18-5.6-3.18-6.338 2.727c-11.366 4.89-26.827 2.943-30.454-3.834-.894-1.671-2.268-2.294-4.04-1.83-1.476.385-2.684.859-2.684 1.051 0 .193 1.56 3.758 3.467 7.923s3.786 11.085 4.175 15.379c.702 7.743.747 7.813 5.533 8.694 6.885 1.266 15.549 5.303 21.501 10.017 6.167 4.884 9.725 13.27 9.102 21.451-.426 5.594-.258 5.895 4.222 7.512 7.75 2.8 15.61 1.066 25.39-5.598zm-37.39-5.529c0-6.892-7.549-14.195-17.732-17.156-4.188-1.217-8.573-2.02-9.745-1.784-1.577.319-7.179 11.304-7.188 14.097 0 .183 3.523.333 7.831.333 8.671 0 17.206 2.526 22.434 6.638 1.885 1.483 3.646 2.696 3.914 2.696.267 0 .486-2.17.486-4.824zm66.027-21.484c2.507-2.736 4.126-5.357 3.599-5.823-.527-.466-7.734-3.927-16.014-7.69l-15.055-6.844-5.344 2.726c-7.737 3.947-9.115 9.134-4.01 15.092 2.69 3.139 7.006 4.857 15.464 6.156 14.133 2.172 16.41 1.786 21.36-3.617zm396.908 3.477c7.94-1.683 15.7-5.25 18.339-8.43 1.448-1.746 1.461-3.881.072-12l-1.69-9.877-5.39 6.902c-2.965 3.796-8.95 10.952-13.3 15.902-4.348 4.95-7.275 9-6.502 9 .773 0 4.585-.674 8.47-1.497zm-342.727-17.96c3.186-2.635 6.244-5.217 6.796-5.737.551-.52-.414-2.867-2.147-5.215l-3.15-4.269-3.52 2.77-3.52 2.769-.005-5.097c-.013-13.137-14.097-21.734-22.995-14.036-2.328 2.015-3.056 7.504-1.524 11.497.522 1.36 2.446 2.109 5.423 2.109 3.94 0 4.496-.374 3.803-2.555-1.076-3.39 1.923-5.13 3.984-2.311.888 1.214 2.008 5.558 2.49 9.652.989 8.419 3.996 15.214 6.732 15.214 1.012 0 4.447-2.156 7.633-4.791zm22.595-15.586c2.852-1.916 5.23-5.05 6.418-8.458 1.743-5.002 1.667-5.867-.997-11.37-3.61-7.459-9.61-11.979-17.009-12.813-7.443-.839-11.281.205-15.652 4.255-5.005 4.639-4.757 10.694.77 18.87 4.464 6.6 13.485 12.56 19.013 12.56 1.61 0 4.965-1.37 7.457-3.044zm-14.692-11.52c-4.806-4.49-5.418-11.04-1.107-11.857 3.734-.708 10.589 7.038 10.086 11.396-.584 5.067-3.868 5.236-8.979.461zm-52.77 7.888c1.332-1.47 2.175-2.842 1.873-3.046-3.89-2.64-15.128-11.904-19.56-16.12l-5.68-5.406-3.595 3.596-3.597 3.597 3.943 4.178c4.41 4.676 20.44 15.876 22.721 15.876.811 0 2.564-1.203 3.895-2.675zm-223.028-6.465c9.985-2.769 21.707-9.356 27.757-15.598 3.728-3.846 4.187-5.447 6.436-22.444l2.421-18.303-5.463-3.713c-3.005-2.043-8.23-5.317-11.612-7.276l-6.148-3.562-3.023 8.352c-9.01 24.89-18.46 35.684-31.245 35.684-10.133 0-21.22-14.86-25.526-34.215-1.215-5.461-2.396-9.742-2.625-9.514-1.138 1.138-4.744 26.013-5.486 37.845-1.16 18.493-.247 22.442 6.173 26.69 12.465 8.25 31.726 10.661 48.341 6.054zm233.206-4.124l3.148-2.597-3.073-2.196c-1.69-1.208-4.672-3.571-6.626-5.252l-3.553-3.057 9.862 1.865c10.19 1.927 12.335 1.74 16.52-1.442 2.315-1.76 1.956-2.455-6-11.631-4.655-5.368-9.37-11.158-10.477-12.869l-2.014-3.11-3.653 2.874c-4.504 3.543-4.53 4.61-.251 10.22 3.838 5.033 3.466 5.187-7.503 3.107-6.746-1.28-7.316-1.169-10.516 2.045l-3.383 3.397 10.823 10.622c5.953 5.842 11.436 10.622 12.186 10.622s2.78-1.17 4.51-2.598zm83.103-.983c2.591-1.235 4.712-2.812 4.712-3.503 0-1.586-20.07-30.25-21.18-30.249-.45 0-4.36 2.78-8.687 6.177l-7.867 6.176 3.2 2.46c3.688 2.835 5.427 3.093 7.42 1.1 1.494-1.494 5.731 3.173 13.092 14.42 2.04 3.116 3.91 5.666 4.154 5.666.244 0 2.564-1.01 5.156-2.247zm274.64-7.027c3.773-3.13 2.415-10.681-4.548-25.295-7.718-16.197-9.959-25.44-9.015-37.193.9-11.222 2.99-13.207 4.196-3.988.51 3.896 1.582 9.708 2.383 12.915l1.455 5.832 3.144-5.165c5.387-8.852 10.845-24.725 12.395-36.048 1.806-13.192.443-23.629-5.457-41.784-3.81-11.723-15.676-37.59-18.654-40.666-.71-.734-4.919-1.992-9.353-2.796l-8.062-1.462-10.39 6.244c-25.878 15.553-61.551 20.87-80.445 11.988-5.73-2.693-12.979-9.496-16.34-15.335-1.384-2.405-1.574-2.396-6 .285-5.971 3.617-27.26 11.978-33.294 13.076l-4.723.86-3.717 16.018c-2.045 8.81-3.429 16.307-3.076 16.66.352.352 3.55-.825 7.107-2.618 10.525-5.304 31.015-12.512 42.592-14.982 12.824-2.737 19.44-2.045 30.585 3.198l7.904 3.718 9.61-3.051c5.285-1.678 13.396-3.666 18.025-4.417 8.784-1.426 32.733-1.925 31.464-.656-.402.401-7.055 2.441-14.786 4.532-15.093 4.083-25.087 7.573-37.257 13.009l-7.662 3.422-5.159-3.414c-6.881-4.553-15.24-6.666-22-5.56-11.128 1.82-29.964 8.755-47.517 17.494l-18 8.963 5.333.999c6.73 1.26 26.937-.526 49.334-4.363 23.056-3.95 53.93-4.256 69.16-.685l10.495 2.46 6.103-6.977c9.222-10.543 22.296-15.047 28.987-9.986 2.405 1.819 2.178 1.96-3.21 2-11.264.082-20.189 7.218-26.66 21.315-4.77 10.393-4.74 25.785.072 36.173 3.349 7.232 7.917 13.04 12.095 15.378 2.034 1.138 1.94 1.822-1.073 7.771-4.869 9.618-4.601 19.655.74 27.717 3.925 5.927 9.417 10.908 15.686 14.227 7.354 3.894 22.94 4 27.534.187zm-20.328-93.659c-4.118-4.118-.025-16.407 5.965-17.91 4.346-1.091 7.101 2.11 7.101 8.252 0 8.05-8.438 14.287-13.066 9.658zm-236.214 92.24l5.28-2.694V462.67c0-14.756-.074-15.128-3.74-18.64-2.056-1.97-4.724-3.582-5.927-3.582-2.229 0-21.951 9.752-24.13 11.931-.707.706-.013 2.86 1.693 5.256l2.891 4.06 7.44-3.29c4.09-1.81 7.664-3.29 7.94-3.29.275 0 .505 3.15.512 7 .013 7.845 1.408 21 2.227 21 .294 0 2.91-1.213 5.814-2.694zm331.546-8.487c20.818-5.283 28.68-9.667 33.278-18.56 3.137-6.065 1.678-17.855-3.513-28.4-4.132-8.394-4.242-8.491-7.114-6.302-5.964 4.546-14.739 16.285-25.244 33.776-5.947 9.9-11.754 19.47-12.905 21.269-1.934 3.02-1.921 3.203.168 2.401 1.244-.477 8.142-2.36 15.33-4.184zm-527.522-3.82c2.489-3.85 9.233-12.606 14.988-19.458 5.754-6.853 10.269-12.553 10.032-12.667-17.97-8.69-24.195-12.549-31.417-19.48l-8.32-7.984-5.092 6.961c-5.71 7.806-13.125 19.973-17.619 28.91l-2.99 5.949 6.504 5.69c3.577 3.13 6.95 5.703 7.494 5.719.545.015 5.045 3.018 10 6.674 4.956 3.655 9.659 6.655 10.452 6.666.793.01 3.478-3.13 5.968-6.98zm267.286 2.344c8.784-1.827 17.585-3.327 19.558-3.333 1.974-.005 3.919-.545 4.322-1.198.771-1.247-7.872-11.609-34.686-41.58-21.395-23.915-33.51-40.482-48.185-65.9-13.31-23.05-28.759-57.708-34.378-77.123l-2.255-7.79-4.87.874c-7.591 1.363-49.536 15.537-49.536 16.738 0 .59 3.347 7.275 7.438 14.854 7.984 14.792 14.326 32.161 15.858 43.429.9 6.618 1.098 6.902 3.8 5.456 1.567-.839 10.362-4.074 19.544-7.19l16.694-5.664 4.476 9.542c7.08 15.09 12.37 28.838 11.587 30.106-.396.64-3.722 2.243-7.391 3.563-3.67 1.32-6.672 3.216-6.672 4.214 0 .999.6 1.445 1.333.992.733-.454 1.333.02 1.333 1.05 0 1.031 1.082 3.122 2.403 4.645 1.321 1.524 3.571 5.05 5 7.834 1.429 2.786 3.553 6.143 4.72 7.46 1.169 1.318 4.169 5.943 6.667 10.278l4.544 7.881 16 5.587c8.8 3.073 17.5 6.453 19.333 7.51 2.2 1.27 2.427 1.636.667 1.075-1.467-.467-7.876-1.192-14.244-1.61-9.562-.628-11.528-.43-11.298 1.14.305 2.075 5.997 10.633 7.982 12 .679.469.822 1.519.319 2.334-.523.845-.024 1.482 1.162 1.482 1.157 0 2.079 1.13 2.079 2.547 0 1.735 2.657 4.044 8.333 7.24 4.583 2.582 9.247 4.736 10.363 4.787 1.116.051 9.216-1.402 18-3.23zm-138.371-4.619c7.544-5.298 9.853-7.768 11.645-12.462 2.025-5.302 2.045-6.312.213-10.696-2.311-5.533-9.043-10.221-14.686-10.228-4.33-.005-18.132 6.406-24.169 11.228l-3.995 3.191 3.215 4.455c6.08 8.425 16.585 21.12 17.475 21.12.49 0 5.126-2.973 10.302-6.608zm-11.732-12.151c-4.192-5.292-4.274-5.61-1.825-7.058 6.874-4.062 12.193-3.462 13.443 1.517.951 3.79-.37 6.528-4.46 9.245-2.55 1.693-3.116 1.4-7.158-3.704zm278.094.426c.468-3.483 1.656-9.241 2.64-12.796 1.78-6.428 1.765-6.496-2.67-12.307-2.453-3.214-4.845-7.055-5.315-8.537-1.121-3.53-1.96-3.414-8.142 1.126-9.793 7.193-13.867 13.462-13.867 21.34 0 5.505 8.937 13.314 18.589 16.243 7.03 2.134 7.862 1.653 8.765-5.069zm69.838-7.423l5.859-3.969-.93-14.804c-.51-8.142-1.355-17.19-1.876-20.108l-.947-5.304-2.417 10.25c-1.329 5.638-4.774 15.126-7.656 21.086-5.136 10.62-5.195 10.911-2.988 14.648 1.239 2.097 2.892 3.443 3.674 2.992.783-.452 4.059-2.608 7.281-4.79zm-304.86 1.266l5-3.074-6.715-8.367c-3.694-4.602-7.905-10.7-9.36-13.551-1.454-2.851-2.956-5.184-3.337-5.184-1.323 0-11.253 5.392-11.253 6.11 0 1.742 18.107 27.22 19.32 27.182.74-.023 3.596-1.425 6.346-3.116zm-306.008-10.376c-5.26-1.526-6.324-1.2-6.324 1.933 0 1.687.75 3.818 1.667 4.737 1.334 1.337 2.262.925 4.657-2.067l2.99-3.736zm323.873-1.454c-.964-3.686 3.98-5.496 15.473-5.666 5.685-.084 10.95-.767 11.702-1.519.932-.932-4.216-5.084-16.214-13.076l-17.58-11.71-4.456 2.124c-5.268 2.512-5.438 4.145-2.455 23.501 1.073 6.967 1.963 13.109 1.976 13.65.013.54 2.758-.346 6.1-1.97 4.53-2.2 5.918-3.559 5.454-5.334zm-2.197-13.758c0-1.143.61-1.702 1.355-1.241.745.46 1.01 1.396.588 2.078-1.143 1.85-1.943 1.505-1.943-.837zm-98.907 10.72c4.635-1.093 9.892-2.755 11.684-3.694l3.256-1.706-4.084-6.44c-4.932-7.778-28.652-32.416-36.278-37.684-4.56-3.149-5.027-3.85-2.789-4.182 3.335-.493 14.606 3.866 21.9 8.47 3.008 1.9 5.644 3.26 5.856 3.024.212-.236 1.74-3.605 3.397-7.487 5.49-12.875 17.89-20.291 33.87-20.26 6.16.012 9.482.81 13.898 3.334 3.191 1.824 6.13 3.317 6.529 3.317 1.923 0-1.443-21.608-5.055-32.448-4.218-12.662-18.559-40.239-20.034-38.526-.462.536-2.454 5.422-4.427 10.858-7.129 19.643-22.155 49.242-29.778 58.655l-2.558 3.16-18.618-1.516c-23.066-1.878-51.032-1.936-71.195-.146l-15.334 1.36-9.564 10.302-9.564 10.301 21.693.878c31.729 1.284 55.08 5.326 73.826 12.781 9.372 3.727 10.193 4.813 2.239 2.96-7.675-1.79-45.287-6.628-51.055-6.568l-4.908.05 7.333 6.85c8.15 7.612 21.843 16.885 30 20.318 14.325 6.028 34.408 7.658 49.76 4.038zm-175.06-28.435c1.24-11.286 1.736-20.947 1.107-21.546-.627-.596-4.404-2.04-8.393-3.21-8.323-2.437-8.703-2.171-10.085 7.045-.5 3.33-2.378 11.128-4.175 17.328-1.796 6.2-3.091 12.015-2.877 12.921.215.907 4.89 4.701 10.39 8.432l10 6.783.893-3.646c.491-2.006 1.904-12.854 3.14-24.107zm28.655-3.568c12.956-17.238 27.476-31.599 43.979-43.498 21.517-15.514 22.856-16.027 10.28-3.938-6.409 6.162-11.494 11.359-11.3 11.55.45.44 27.845-3.11 28.31-3.669.191-.229 1.399-6.417 2.685-13.75 3.027-17.27 7.71-32.083 14.277-45.158 5.468-10.885 15.263-22.722 19.78-23.904 3.777-.987 8.99 3.715 10.794 9.736l1.558 5.198 4.552-7.602c10.062-16.803 28.399-29.963 47.143-33.834 4.95-1.023 8.138-2.408 8.52-3.702.647-2.186 4.723-25.43 4.73-26.971.007-1.537-22.73 5.105-34.494 10.077-17.065 7.212-40.077 21.449-64.757 40.063-6.273 4.732-12.07 9.013-12.881 9.514-.811.502 1.905-5.696 6.037-13.773 18.869-36.889 41.832-64.02 63.253-74.732 12.233-6.118 21.126-7.302 26.511-3.53 3.01 2.108 6.415 11.664 4.983 13.982-.486.787 2.053 1.303 6.411 1.303h7.216l.863-10.202c.474-5.61.862-12.45.862-15.2v-5.001l-23-14.638c-40.977-26.08-54.525-33.87-57.545-33.082-4.418 1.15-24.539 13.569-35.156 21.697-15.066 11.535-30.514 30.596-38.23 47.171-2.741 5.89-3.394 9.387-3.469 18.588-.05 6.233-.558 14.161-1.127 17.618l-1.035 6.284 6.114.843c13.313 1.835 33.813 8.668 31.86 10.62-.281.282-4.39-.036-9.128-.707-28.09-3.977-54.035-2.77-75.806 3.522-22.2 6.417-45.62 16.924-62.01 27.818l-3.865 2.569 1.685-3.149c.927-1.732 4.35-5.739 7.608-8.905l5.922-5.756-4.38-12.378c-4.223-11.935-4.382-13.12-4.41-33.046-.022-16.75.445-22.056 2.468-28 6.799-19.971 16.665-31.49 34.096-39.806 9.054-4.32 10.986-4.741 22-4.798 14.394-.074 23.212 2.564 31.083 9.302 4.46 3.817 5.524 4.242 6.203 2.473 1.86-4.846 13.978-21.62 21.276-29.45 7.758-8.322 23.006-18.955 31.36-21.867l4.346-1.515-6.716-3.836c-6.593-3.766-7.09-3.836-27.1-3.836h-20.386l-6.662 4.748c-10.26 7.311-23.854 14.446-40.47 21.241-19.273 7.882-32.858 11.344-44.508 11.344-8.416 0-9.564-.34-13.12-3.897-4.207-4.206-4.612-6.298-2.587-13.356.72-2.514 1.029-4.851.685-5.195-.343-.343-4.616.456-9.495 1.777-7.651 2.07-10.16 3.611-18.24 11.203-5.152 4.84-12.942 13.283-17.31 18.761l-7.944 9.96 3.901 1.01c2.67.692 4.901 2.791 7.073 6.654 5.683 10.113 4.3 24.382-5.39 55.653-2.144 6.913-3.753 12.71-3.577 12.882.176.173 4.036-.907 8.579-2.398 14.105-4.63 23.675-.255 27.127 12.402 2.176 7.975.8 27.693-3.132 44.878-1.72 7.516-2.913 13.666-2.652 13.666.26 0 3.906-1.73 8.102-3.843 20.381-10.268 47.377-14.907 59.596-10.24 12.138 4.636 20.673 18.864 23.527 39.22 1.306 9.316.212 35.666-2.222 53.53-.63 4.624-.555 4.702 8.07 8.533 4.787 2.126 8.52 4.05 8.294 4.275-.225.226-3.986-.703-8.356-2.063-4.37-1.36-8.106-2.324-8.3-2.144-.496.46-4.255 37.876-4.287 42.671-.024 3.49.656 2.831 5.967-5.783 3.297-5.346 10.209-15.33 15.361-22.184zm30.645-131.466c-8.493-3.377-14.16-14.213-8.557-16.363 6.227-2.39 20.783 1.594 24.052 6.582 4.717 7.2-5.603 13.714-15.495 9.781zm-148.333-57.28c-1.81-1.054-2.312-3.06-2.24-8.959.122-9.83 1.023-11.6 5.907-11.6 3.699 0 4.203-.601 6.7-7.988 2.948-8.724 5.709-10.532 10.066-6.589 4.148 3.754 3.38 12.362-2.067 23.178-6.19 12.292-11.669 15.86-18.366 11.959zm37.735-45.157c-3.26-3.26-3.348-4.348-.763-9.347 1.285-2.485 4.06-4.61 7.973-6.105 5.591-2.135 6.231-2.141 9.362-.09 7.176 4.702 1.652 13.502-10.905 17.373-2.047.63-3.758.078-5.667-1.831zM719.2 427.449c2.896-8.291 16.445-17.408 27.768-18.684l5.88-.663V396.66l-8.724-.934c-22.498-2.41-34.77 5.823-36.345 24.383-.584 6.878-.519 7.028 3.904 8.948 6.008 2.609 6.047 2.6 7.517-1.61zm-235.92-16.963c8.644-9.24 15.664-22.025 17.042-31.037.82-5.359.689-5.667-2.396-5.667-9.808 0-25.56 8.432-30.86 16.52-3.929 5.996-6.13 17.364-5.293 27.342l.774 9.222 6.375-3.923c3.507-2.158 9.968-7.763 14.358-12.457zm-295.1-5.281c3.667-1.716 7.818-4.003 9.225-5.084 2.428-1.865 2.226-2.159-4-5.818-5.413-3.182-6.052-3.926-3.66-4.267 1.594-.227 5.393.86 8.442 2.416 4.921 2.51 5.868 2.615 8.435.932 4.098-2.686 23.559-21.001 23.559-22.171 0-.535-11.997-4.526-26.66-8.868-14.662-4.343-26.662-8.276-26.666-8.74-.004-.465 1.642-1.168 3.66-1.563 4.51-.882 15.917 1.453 37.44 7.663 9.041 2.609 16.956 4.744 17.588 4.744 1.32 0 10.086-11.204 19.105-24.418 3.41-4.996 6.193-8.296 6.185-7.333-.008.963-1.207 9.484-2.666 18.936-1.46 9.452-2.653 17.939-2.653 18.86 0 .92 3.75 3.177 8.333 5.016l8.334 3.343.903-4.202c2.125-9.892 4.071-37.876 3.483-50.093-.793-16.482-4.888-26.198-13.42-31.844-4.788-3.168-6.725-3.597-16.202-3.581-7.614.012-13.496.917-20.098 3.091-10.861 3.577-40.666 17.51-40.666 19.011 0 3.103-11.18 19.07-18.667 26.661-9.347 9.477-18.072 15.193-28.65 18.77-3.675 1.243-7.26 3.172-7.966 4.286-1.874 2.958 1.3 19.639 5.202 27.338 9.338 18.427 32.659 26.001 52.08 16.915zm-18-12.348c-4.597-1.643-7.283-9.712-3.923-11.789 4.928-3.045 12.96 6.252 9.256 10.715-1.759 2.12-2.173 2.203-5.332 1.074zm15.618-19.903c-.523-.522-.95-2.65-.95-4.728 0-3.088.578-3.777 3.17-3.777 6.57 0 8.498 8.312 2.101 9.06-1.854.218-3.799-.032-4.321-.555zm-36.439-9.315c-.568-2.262-.252-3.86.903-4.574 2.733-1.689 6.585 1.098 6.585 4.764 0 2.61-.68 3.286-3.308 3.286-2.452 0-3.533-.898-4.18-3.476zm-26.973 25.81c1.685-1.372 1.94-4.201 1.438-15.979l-.61-14.311-6.645-4.089c-7.99-4.916-18.73-14.707-23.902-21.79-3.332-4.563-3.894-4.875-4.797-2.667-1.659 4.058-1.044 28.714.86 34.502 4.64 14.102 16.886 26 26.758 26 2.667 0 5.771-.75 6.898-1.666zm-13.492-10.246c-1.917-3.583-1.723-6.754.413-6.754 2.414 0 6.207 4.342 6.207 7.105 0 3.104-4.91 2.843-6.62-.351zm-7.956-21.252c-2.426-4.534-1.792-9.502 1.212-9.502 3.119 0 7.112 5.52 6.46 8.934-.656 3.443-5.925 3.833-7.672.568zm617.788 28.483c7.772-2.357 21.258-2.577 29.582-.48 6.598 1.66 6.508 1.688 7.758-2.384.794-2.586.167-3.038-6.167-4.443-3.879-.861-13.143-1.899-20.588-2.307l-13.537-.741-2.13 4.119c-1.825 3.53-2.862 8.282-1.797 8.236.184-.008 3.28-.908 6.879-2zM443.161 349.45c9.219-16.767 21.792-46.334 19.703-46.334-.456 0-4.376 2.409-8.711 5.353-9.056 6.15-18.667 17.447-26.125 30.708-2.85 5.066-5.48 9.223-5.847 9.237-.367.014-1.73-2.56-3.03-5.722-2.879-7.001-8.591-13.742-12.622-14.893-2.172-.62-3.818.047-6.046 2.45-3.172 3.423-8.23 16.508-9.727 25.167l-.86 4.966 21.81.403c11.994.221 22.453.536 23.24.7.789.164 4.485-5.252 8.215-12.035zm-334.748-17.843c-3.06-.83-6.714-1.982-8.118-2.56-3.982-1.64-1.388 1.613 4.948 6.202l5.462 3.958 1.637-3.046c1.547-2.877 1.331-3.128-3.929-4.554zm470.128 2.65c4.897-.81 5.01-.956 4.364-5.653l-.663-4.821 1.53 4.454c1.32 3.844 2.008 4.36 5.01 3.76 1.913-.384 10.96-1.733 20.105-2.999s16.766-2.396 16.935-2.511c.879-.596 5.533-43.118 5.915-54.037l.444-12.667-12.667.392c-14.563.451-41.12 4.1-61.125 8.398l-13.791 2.963.764 3.821c2.335 11.674 23.586 59.768 26.398 59.745.965-.008 4.016-.389 6.78-.846zM144.903 318.57c6.936-1.804 17.411-5.275 23.278-7.714 9.987-4.151 10.863-4.845 13.756-10.891 5.44-11.37 8.464-25.745 9.22-43.816.59-14.135.353-17.509-1.422-20.218-12.1-18.468-71.399 25.918-92.376 69.146-5.27 10.857-5.43 12.119-1.783 14.07 8.868 4.747 29.799 4.501 49.327-.577zm597.77-6.062c4.166-1.434 11.226-4.553 15.689-6.931l8.114-4.325-7.814-2.213c-10.018-2.838-27.488-9.833-34.983-14.008-3.209-1.788-6.596-3.25-7.528-3.25-.932 0-3.556 2.12-5.832 4.713-4.586 5.223-5.316 10.475-2.275 16.356 5.906 11.422 18.938 15.056 34.628 9.658zm-45.849-42.883c.056-1.984-10.971-7.844-14.759-7.844-3.28 0-5.674 1.525-11.183 7.123-4.53 4.602-11.083 9.203-18.517 13-11.295 5.77-11.506 5.967-11.512 10.777l-.007 4.9 27.977-13.567c15.388-7.461 27.988-13.937 28-14.39zm-553.471-27.264c5.874-3.852 7.6-6.719 13.594-22.58 1.386-3.667 1.78-5.55.877-4.183-6.509 9.838-15.527 20.077-20.771 23.584-5.12 3.424-7.178 4.044-11.766 3.55l-5.56-.6-1.44 8.267c-2.403 13.802-2.446 13.78 8.894 4.368 5.683-4.717 12.96-10.3 16.172-12.406zm123.156 5.304c12.916-4.4 33.697-8.55 42.803-8.55 4.058 0 7.711-.54 8.118-1.198 1.995-3.228 3.55-35.283 2.159-44.492-1.983-13.126-8.356-25.687-15.912-31.362-3.211-2.412-6.078-4.145-6.371-3.852-.293.294.084 2.156.837 4.139 2.055 5.403 1.652 22.63-.746 31.882-7.282 28.101-27.863 49.133-48.353 49.412-5.545.075-8.904-.684-12.55-2.835-4.45-2.625-4.978-2.694-4.96-.65.023 2.644 3.722 18.792 4.648 20.29.342.554 5.13-1.355 10.639-4.241 5.51-2.887 14.369-6.731 19.688-8.543zm8.598-30.146c4.606-4.299 5.816-9.301 3.438-14.213-2.41-4.976-3.469-5.214-5.307-1.192-.754 1.65-4.205 6.15-7.67 9.998-6.252 6.948-6.275 7.007-3.176 8.278 4.069 1.667 9.06.54 12.715-2.871zm-135.2-10.12c6.034-6.297 6.113-16.285.13-16.285-2.859 0-9.887 14.944-8.334 17.719 1.813 3.24 4.113 2.837 8.205-1.434zm115.622-3.285c3.187-5.227 3.377-9.417.557-12.238-2.802-2.801-5.36-2.64-8.538.538-3.221 3.22-4.603 8.253-3.486 12.7.66 2.628 1.682 3.334 4.83 3.334 3.076 0 4.602-.997 6.637-4.334zm-90.744-19.16c.335-.334.856-4.483 1.157-9.218.496-7.776.243-8.865-2.606-11.238-4.696-3.912-7.074-3.31-11.127 2.813-3.175 4.798-3.384 5.685-1.577 6.696 4.191 2.345 6.215 5.39 6.215 9.347 0 3.751.27 3.982 3.664 3.13 2.016-.506 3.939-1.194 4.274-1.53zm118.31-1.773c5.738-3.498 7.52-7.299 6.725-14.345-1.735-15.391-17.999-16.497-25.629-1.742-1.866 3.61-1.817 3.692 3.459 5.764 4.223 1.66 5.8 3.243 7.477 7.513 1.169 2.975 2.484 5.408 2.923 5.405.438-.003 2.71-1.17 5.046-2.595zm-129.327-30.288l3.248-4.221-7.17-1.489c-11.158-2.316-22.528-8.321-28.194-14.891-4.925-5.71-10.762-15.839-12.972-22.511-.736-2.22-.99.007-.76 6.667.41 11.84 4.467 21.856 12.441 30.706 8.078 8.966 11.793 10.736 21.656 10.32 7.782-.33 8.778-.717 11.751-4.58zm301.784-40.445c7.927-7.9 12.867-14.206 16.31-20.818 12.916-24.803 11.399-51.806-3.693-65.717-11.191-10.316-28.053-10.966-39.5-1.523l-4.846 3.997 3.354 9.03c4.758 12.81 4.664 28.72-.262 44.364-1.963 6.233-3.568 12.396-3.566 13.695.003 1.372-.608 1.984-1.455 1.461-.903-.558-1.076-.282-.452.727.553.895 1.337 1.297 1.741.893 1.142-1.142 4.512 6.162 3.755 8.136-.37.965-.065 1.755.68 1.755.751 0 1.22 2.553 1.055 5.745-.164 3.16.201 6.553.811 7.54.74 1.195.6 1.48-.415.851-2.243-1.386-.315 3.488 2.175 5.498 3.18 2.567 11.262-2.632 24.308-15.634zM289.514 861.716c-31.033-7.846-57.526-29.16-72.01-57.934-8.701-17.288-11.59-29.642-11.693-50-.126-24.91 4.81-41.539 18.44-62.114 32.59-49.2 97.99-64.275 149.263-34.405 14.122 8.227 32.601 26.825 40.26 40.519 15.529 27.768 18.97 61.568 9.195 90.309-11.849 34.837-36.157 59.2-71.327 71.488-10.43 3.644-13.261 4.042-31.461 4.42-16.63.344-21.798-.04-30.667-2.283zm53.333-8.646c12.388-3.284 31.152-13.021 40.188-20.856 9.674-8.387 18.244-18.041 14.812-16.686a883.058 883.058 0 0 0-4.553 1.815c-1.516.61-.894-1.035 1.96-5.182 7.184-10.442 9.904-19.06 9.888-31.33l-.013-10.952 4.526-2.67c2.49-1.469 4.526-2.145 4.526-1.504 0 3.628-9.411 37.7-11.75 42.541-1.672 3.461-2.05 5.142-.948 4.228 3.362-2.79 12.61-23.237 15.337-33.905 1.972-7.722 2.658-14.507 2.561-25.334-.14-15.533-2.145-27.76-2.4-14.64-.074 3.749-.528 9.695-1.01 13.215l-.878 6.401-2.846-7.881c-2.808-7.776-2.812-7.928-.308-11.41 8.646-12.017-.969-36.354-23.1-58.47-13.127-13.118-24.591-20.001-33.312-20.001-4.606 0-6.426.813-10.146 4.533-2.494 2.493-4.534 5.493-4.534 6.667 0 1.173-.415 2.133-.922 2.133-1.897 0-19.045-7.367-19.061-8.189-.01-.47 1.633-1.262 3.65-1.76 5.432-1.339 19-7.593 19-8.757 0-1.59-3.111-2.41-15.302-4.032-24.91-3.315-51.744 4.27-74.031 20.927l-8.667 6.478 6.392.666 6.391.667-8.058 7.958c-6.636 6.554-8.058 7.456-8.058 5.11 0-3.558-1.3-7.068-2.616-7.068-1.712 0-11.941 15.467-16.083 24.316-7.177 15.339-9.701 28.6-8.927 46.915.374 8.856 1.393 18.431 2.264 21.277 1.409 4.603 1.805 4.954 3.586 3.172 1.102-1.101 4.003-6.962 6.447-13.024l4.444-11.022 4.861 9.653c2.674 5.309 4.673 9.741 4.443 9.85-11.528 5.412-14.42 9.096-14.42 18.376 0 9.008 4.687 16.724 18.56 30.56 16.039 15.996 29.81 23.615 44.774 24.771 8.14.63 10.145.303 15.682-2.555l6.35-3.275 8.153 2.952c9.689 3.508 8.49 4.424-7.4 5.649-7.483.577-9.891 1.156-8.061 1.94 3.888 1.663 29.441.163 38.61-2.267zm-9.958-4.288c.023-.55 1.373-3.1 3-5.667l2.958-4.666 10.667-.058c11.565-.062 21.061-3.373 30.647-10.685 5.203-3.968 5.634-3.624 2.659 2.13-2.869 5.547-14.885 11.01-37.946 17.248-11.086 3-12.045 3.135-11.985 1.698zm-20.462-12c.875-6.638-3.372-17.668-10.32-26.805-2.985-3.926-5.24-7.288-5.01-7.471.23-.183 4.317-1.055 9.084-1.938 4.766-.883 9.591-1.871 10.721-2.197 1.72-.495 2.046.988 2 9.11-.065 11.523 4.117 21.3 10.963 25.634 2.317 1.467 4.236 3.069 4.264 3.56.052.897-16.78 5.107-20.418 5.107-1.474 0-1.784-1.208-1.284-5zm-25.58-42.449c-8.292-7.05-25.896-15.262-34.658-16.166-6.877-.71-7.48-1.029-6.763-3.582.432-1.542 1.774-6.64 2.98-11.328l2.195-8.525 2.781 3.858c4.22 5.855 10.203 10.98 16.22 13.897 6.71 3.253 19.834 5.777 24.836 4.777 4.4-.88 4.446-.584 1.621 10.326-3.067 11.841-3.147 11.9-9.212 6.743zm25.012-10.07l-7.96-8.186 9.06-4.533c13.791-6.9 23.495-18.15 28.462-33.003.752-2.249 1.87-1.577 8.81 5.291 4.373 4.327 7.948 8.185 7.947 8.575-.001.39-3.43 2.498-7.616 4.686-10.433 5.452-20.616 16.005-25.679 26.614-2.294 4.808-4.372 8.742-4.617 8.742-.245 0-4.028-3.684-8.407-8.186zm86.435-24.034c-6.512-7.807-14.178-10.857-25.655-10.209-5.97.338-9.011.037-8.682-.86.28-.758 1.303-5.578 2.275-10.711.972-5.134 1.93-9.555 2.128-9.825.198-.271 2.893 1.676 5.99 4.327 7.745 6.63 16.37 10.546 24.758 11.241 6.942.576 7.07.664 6.945 4.755-.07 2.293-.82 6.997-1.667 10.455l-1.539 6.286zm-165.447-8.802c0-.607 1.236-6.764 2.746-13.684 1.51-6.92 3.593-18.224 4.629-25.121 1.035-6.898 2.06-12.72 2.278-12.937.218-.218 3.508-.809 7.312-1.313l6.916-.918-5.586 10.935c-4.722 9.242-5.662 12.425-6.073 20.576-.438 8.655.424 14.605 3.032 20.949.741 1.801-.373 2.17-7.188 2.374-4.436.133-8.066-.255-8.066-.861zm110.667-27.403c0-13.296-6.847-26.335-18.496-35.22l-5.753-4.387 4.66-1.948c2.564-1.07 7.078-2.334 10.032-2.806l5.37-.859 1.447 5.823c2.256 9.085 8.477 21.116 15.982 30.907 4.467 5.829 6.264 9.143 5.145 9.489-.946.292-4.677 1.483-8.291 2.645-9.632 3.099-10.096 2.931-10.096-3.644zm-82.667-35.914c0-4.127.642-7.9 1.427-8.385 1.122-.694 26.347-6.84 50.24-12.242 2.859-.647 3-.294 3 7.502v8.181l-3.667-1.025c-2.016-.564-9.366-1.01-16.333-.99-11.25.032-13.487.458-20 3.81-4.033 2.076-8.983 5.322-11 7.214l-3.667 3.44zm626.076 169.375c-1.142-1.63-2.076-4.33-2.076-6 0-7.038 10.426-11.126 15.127-5.931 2.929 3.236 2.807 9.939-.232 12.688-3.575 3.236-10.3 2.839-12.819-.757zm3.524-1.303c-2.08-2.08-2.046-6.7.067-9.069 1.418-1.59 1.318-1.606-.667-.103-2.687 2.033-3.07 6.834-.733 9.172.88.88 1.9 1.6 2.267 1.6.366 0-.054-.72-.934-1.6zm9.067-4.4c0-1.654-1.05-3.801-2.333-4.772-1.985-1.503-2.085-1.487-.667.103 2.137 2.396 2.197 5.066.067 2.936-2.646-2.646-5.067-1.818-5.067 1.733s2.42 4.38 5.067 1.733c2.13-2.13 2.07.54-.067 2.936-1.418 1.59-1.318 1.606.667.104 1.283-.972 2.333-3.12 2.333-4.773zm9.333 0v-7.333h4.746c2.824 0 4.411.54 3.921 1.333-.453.733-1.989 1.333-3.412 1.333-1.423 0-2.588.6-2.588 1.334 0 .733 1.165 1.333 2.588 1.333 3.755 0 4.662 2.399 1.099 2.905-1.948.276-3.172 1.494-3.446 3.428-.842 5.927-2.908 2.849-2.908-4.333zm10.667 0c0-5.63.465-7.333 2-7.333s2 1.703 2 7.333-.465 7.333-2 7.333-2-1.703-2-7.333zm6.667 0c0-7.26.04-7.333 4-7.333 2.2 0 4 .6 4 1.333s-1.2 1.333-2.667 1.333c-3.596 0-3.385 2.119.333 3.347l3 .992-3 .59c-2.126.418-3 1.534-3 3.83 0 1.783-.6 3.241-1.333 3.241s-1.333-3.3-1.333-7.333zm8 6.17c0-2.787 5.606-13.503 7.062-13.5.882 0 2.9 3.3 4.482 7.333 1.583 4.032 2.368 7.33 1.745 7.33-.622 0-1.503-.6-1.956-1.333-.453-.733-2.589-1.333-4.745-1.333-2.157 0-3.922.6-3.922 1.333s-.6 1.333-1.333 1.333-1.333-.523-1.333-1.164zm9.333-4.728c0-2.032-1.816-4.635-2.806-4.022-1.95 1.205-1.356 4.58.806 4.58 1.1 0 2-.25 2-.558zm14.667-.109c0-4.335-.533-6-1.922-6-1.056 0-2.292-.6-2.745-1.333-.503-.814 1.542-1.333 5.255-1.333 3.343 0 6.078.6 6.078 1.333s-.9 1.333-2 1.333c-1.481 0-2 1.556-2 6 0 3.3-.6 6-1.333 6s-1.333-2.7-1.333-6zm8-1.333c0-6.232.368-7.333 2.453-7.333 1.697 0 3.02 1.715 4.29 5.565l1.837 5.566 2.427-5.566c3.553-8.147 6.326-7.372 6.326 1.768 0 8.123-2.59 10.285-2.796 2.333l-.13-5-2.051 5c-2.589 6.31-4.44 6.308-7.228-.007l-2.205-4.993-.128 5c-.204 7.953-2.795 5.79-2.795-2.333z" fill="#4f4f4f"/></svg>